<svg xmlns="http://www.w3.org/2000/svg" width="50" height="50" viewBox="0 0 50 50" xmlns:xlink="http://www.w3.org/1999/xlink"><defs><path id="gepoA" d="M0 0h50v50H0z"/><path id="gepoC" d="M41.063 36.915c0 .745-.532 1.488-1.063 1.488h-5.64c-.532 0-1.064-.637-1.064-1.488v-5.532c0-.85.427-1.49 1.064-1.49H40c.531 0 1.063.64 1.063 1.49v5.532zM30.425 32.66c0 3.51-2.34 5.425-2.447 5.425.108.107-.105.107-.212.107h-6.703c-.105 0-.212-.107-.319-.107-.106-.106-2.445-1.915-2.445-5.425V21.596c0-.32.211-.532.531-.532h11.063c.32 0 .532.213.532.532V32.66zm-12.979 4.787c-.211.532-.532.851-1.063 1.064-.958.319-2.128-.108-2.447-1.171v-.106L6.808 18.936v-.212l.426-2.98v-.105c0-.107.106-.213.212-.213h.426l2.34 1.915c0 .106.108.106.108.212l7.126 18.298v.107c.213.532.213 1.063 0 1.489zm3.192-19.787c0-.32.213-.532.532-.532h6.703c.318 0 .532.213.532.532v2.234h-7.767V17.66zm.532-5.639c0-.106.106-.319.213-.425.107 0 .212-.106.425-.106.106 0 2.766.425 4.575 1.17a.586.586 0 01.319.532v1.702c.32 0 .532.213.532.532v.532h-5.532v-.532c0-.32.212-.532.532-.532v-.426l-.958-1.595c0-.107-.106-.213-.106-.32v-.532zm13.086 8.83c0-.532.318-.957.745-.957h4.255c.424 0 .744.425.744.957h-.107v7.978h-5.637V20.85zm.745-4.042v-.213c.105-.106 1.063-2.766 3.828-3.298.107 0 .214 0 .32.106.107.107.107.32.107.426v5h-4.255v-2.021zM25 0C11.17 0 0 11.17 0 25s11.17 25 25 25 25-11.17 25-25S38.83 0 25 0z"/><filter id="gepoD" width="106%" height="106%" x="-3%" y="-3%" filterUnits="objectBoundingBox"><feGaussianBlur in="SourceAlpha" result="shadowBlurInner1" stdDeviation="1"/><feOffset dy="1" in="shadowBlurInner1" result="shadowOffsetInner1"/><feComposite in="shadowOffsetInner1" in2="SourceAlpha" k2="-1" k3="1" operator="arithmetic" result="shadowInnerInner1"/><feColorMatrix in="shadowInnerInner1" values="0 0 0 0 0 0 0 0 0 0 0 0 0 0 0 0 0 0 0.2 0"/></filter></defs><g fill="none" fill-rule="evenodd"><path fill="#FC2779" d="M16.49 35.851l-2.128.851c.106.106.106.213.212.426.213.532.958.85 1.49.638a.96.96 0 00.638-.638c.107-.213.107-.532 0-.852l-.213-.425"/><mask id="gepoB" fill="#fff"><use xlink:href="#gepoA"/></mask><g mask="url(#gepoB)"><use fill="#FC2779" xlink:href="#gepoC"/><use fill="#000" filter="url(#gepoD)" xlink:href="#gepoC"/></g><path fill="#FC2779" d="M7.553 18.298l1.702-.638-1.383-1.17z"/></g></svg>