<svg xmlns="http://www.w3.org/2000/svg" width="50" height="50" viewBox="0 0 50 50" xmlns:xlink="http://www.w3.org/1999/xlink"><defs><path id="btA" d="M0 0h50v50H0z"/><path id="btC" d="M36.808 23.51v.214c0 .85 0 1.595-.532 2.127l-12.658 12.66c-.32.213-.746.425-1.172.425-.424 0-.85-.106-1.17-.425l-9.68-9.681c-.212-.32-.426-.745-.426-1.17 0-.426.106-.851.425-1.17l12.766-12.66c.532-.532 1.17-.532 1.916-.532h8.616c1.064 0 1.915.851 1.915 1.915v8.298zM25 0C11.17 0 0 11.17 0 25s11.17 25 25 25 25-11.17 25-25S38.83 0 25 0z"/><filter id="btD" width="106%" height="106%" x="-3%" y="-3%" filterUnits="objectBoundingBox"><feGaussianBlur in="SourceAlpha" result="shadowBlurInner1" stdDeviation="1"/><feOffset dy="1" in="shadowBlurInner1" result="shadowOffsetInner1"/><feComposite in="shadowOffsetInner1" in2="SourceAlpha" k2="-1" k3="1" operator="arithmetic" result="shadowInnerInner1"/><feColorMatrix in="shadowInnerInner1" values="0 0 0 0 0 0 0 0 0 0 0 0 0 0 0 0 0 0 0.2 0"/></filter></defs><g fill="none" fill-rule="evenodd"><path fill="#FC2779" d="M31.702 16.49A1.68 1.68 0 0030 18.191c0 .958.746 1.703 1.702 1.703.957 0 1.703-.745 1.703-1.703 0-.957-.746-1.702-1.703-1.702"/><mask id="btB" fill="#fff"><use xlink:href="#btA"/></mask><g mask="url(#btB)"><use fill="#FC2779" xlink:href="#btC"/><use fill="#000" filter="url(#d)" xlink:href="#btC"/></g></g></svg>